<svg xmlns="http://www.w3.org/2000/svg" viewBox="0 0 1200 800" width="1200" height="800">
  <defs>
    <linearGradient id="cosmosBg" x1="0" y1="0" x2="1" y2="1">
      <stop offset="0%" stop-color="#020617"/>
      <stop offset="40%" stop-color="#1e1b4b"/>
      <stop offset="80%" stop-color="#4c0519"/>
      <stop offset="100%" stop-color="#020617"/>
    </linearGradient>
    <radialGradient id="nebulaGlow" cx="50%" cy="50%" r="50%">
      <stop offset="0%" stop-color="#f43f5e" stop-opacity="0.6"/>
      <stop offset="50%" stop-color="#a855f7" stop-opacity="0.3"/>
      <stop offset="100%" stop-color="#38bdf8" stop-opacity="0"/>
    </radialGradient>
    <radialGradient id="celestialSpark" cx="50%" cy="50%" r="50%">
      <stop offset="0%" stop-color="#ffffff"/>
      <stop offset="30%" stop-color="#fef08a"/>
      <stop offset="70%" stop-color="#ec4899" stop-opacity="0.6"/>
      <stop offset="100%" stop-color="#ec4899" stop-opacity="0"/>
    </radialGradient>
  </defs>
  <rect width="1200" height="800" fill="url(#cosmosBg)"/>
  <!-- Nebula swirl -->
  <circle cx="600" cy="380" r="380" fill="url(#nebulaGlow)"/>
  <!-- Stardust particles -->
  <circle cx="315.51386992667176" cy="324.0917133827635" r="2.391338198140849" fill="#fff" opacity="0.24401699604395885"/><circle cx="1100.5969256803983" cy="277.12046967842633" r="2.0402293762535684" fill="#fff" opacity="0.5087314277401718"/><circle cx="839.3912742212378" cy="597.9002410679174" r="1.6476410852934067" fill="#fff" opacity="0.49269643705129307"/><circle cx="155.20434893221403" cy="371.80929568009714" r="0.7362696265806619" fill="#fff" opacity="0.3070863055290911"/><circle cx="74.9978870682094" cy="763.1020015813814" r="2.3922517379312116" fill="#fff" opacity="0.7417358013561819"/><circle cx="46.849450493237214" cy="703.5389205526321" r="2.5192927565655756" fill="#fff" opacity="0.36187697506323513"/><circle cx="1051.2481376372655" cy="510.1824226942943" r="1.1323158784375849" fill="#fff" opacity="0.8599373045661958"/><circle cx="61.4707402227733" cy="102.69861181505871" r="2.293014884873811" fill="#fff" opacity="0.5903654022799774"/><circle cx="646.8508615480438" cy="28.946970530125782" r="1.8458770623260674" fill="#fff" opacity="0.39192655010969574"/><circle cx="363.431592957222" cy="163.04114044000002" r="0.9423839842299243" fill="#fff" opacity="0.8093108995267537"/><circle cx="995.6963873620723" cy="716.0094214829163" r="2.7282826403909213" fill="#fff" opacity="0.4465030967547275"/><circle cx="599.8117207873114" cy="251.87867937748578" r="0.6530248308299514" fill="#fff" opacity="0.5247729513326442"/><circle cx="753.4951379365077" cy="517.6786791472786" r="1.570222082207215" fill="#fff" opacity="0.7268888833552343"/><circle cx="299.7510882083868" cy="411.7142754944474" r="2.4765056555181673" fill="#fff" opacity="0.47625065510670894"/><circle cx="828.0810549853095" cy="639.7649900868167" r="1.9277106315575931" fill="#fff" opacity="0.5306878296116486"/><circle cx="488.6640898109772" cy="466.08539402344906" r="2.8094886743980414" fill="#fff" opacity="0.9884931106252031"/><circle cx="116.88409341414624" cy="170.10915980363777" r="2.752981001750623" fill="#fff" opacity="0.7311985467102009"/><circle cx="853.7383996490953" cy="245.89541608798058" r="1.2863273192736087" fill="#fff" opacity="0.6976064209145871"/><circle cx="216.93232765960948" cy="494.76215212814714" r="2.9034754257103903" fill="#fff" opacity="0.30581906198607584"/><circle cx="346.5982844272342" cy="522.668725038785" r="1.3349879775102775" fill="#fff" opacity="0.6148130858269123"/><circle cx="899.7677130360299" cy="652.535454151619" r="2.6891458508251294" fill="#fff" opacity="0.6486819026766879"/><circle cx="146.29747003825858" cy="224.90375911817395" r="1.8199117405988137" fill="#fff" opacity="0.6918196073515951"/><circle cx="38.28736378864157" cy="773.572195603077" r="0.5885075222338982" fill="#fff" opacity="0.6896851905277721"/><circle cx="613.0043637356772" cy="184.58911381413668" r="1.423522383993523" fill="#fff" opacity="0.6643775884438736"/><circle cx="1186.1722776773836" cy="122.12384287456572" r="2.055072447688834" fill="#fff" opacity="0.82830547733427"/><circle cx="1007.7080015774492" cy="397.6692559977716" r="0.8782205458349369" fill="#fff" opacity="0.9102416734168421"/><circle cx="1148.180464498848" cy="381.61510738269817" r="2.116344800494778" fill="#fff" opacity="0.9151442748590575"/><circle cx="216.7741921162679" cy="545.2171700512343" r="2.6556384453763866" fill="#fff" opacity="0.8129686083217977"/><circle cx="602.6290789710282" cy="249.65801659586884" r="1.6369811685348796" fill="#fff" opacity="0.747274835661526"/><circle cx="449.88849425865436" cy="418.4798677227189" r="0.9624986523971075" fill="#fff" opacity="0.6269016393203632"/><circle cx="500.16629255602487" cy="402.66584267722044" r="1.575254832915129" fill="#fff" opacity="0.44085470580602043"/><circle cx="731.2529677738038" cy="278.52921791426013" r="2.708433494695694" fill="#fff" opacity="0.9811887037001292"/><circle cx="71.9101066907557" cy="483.9154647541086" r="0.5561882745279474" fill="#fff" opacity="0.3554823573154474"/><circle cx="1057.8427555104768" cy="643.6316600468374" r="1.1892846278021976" fill="#fff" opacity="0.8962813696540017"/><circle cx="687.141186074255" cy="170.18055698914765" r="1.2844743001212862" fill="#fff" opacity="0.6606689413201476"/><circle cx="710.9395023024922" cy="316.4157277031208" r="2.367799849320477" fill="#fff" opacity="0.6327924074571559"/><circle cx="322.18050142171995" cy="134.49389634559435" r="2.476622238094664" fill="#fff" opacity="0.6365572373804664"/><circle cx="420.83159838095446" cy="687.1712720265114" r="2.742959858338334" fill="#fff" opacity="0.591231275899186"/><circle cx="513.2536354757002" cy="39.48937539994066" r="2.6677114769679706" fill="#fff" opacity="0.887525754180102"/><circle cx="1040.4520310763023" cy="371.51827480169857" r="1.4162691128196192" fill="#fff" opacity="0.7180675085542452"/><circle cx="211.58692830451972" cy="632.0663700488028" r="1.8366691578908962" fill="#fff" opacity="0.7860544178935513"/><circle cx="87.01846102670947" cy="798.8355005989636" r="2.897055356149957" fill="#fff" opacity="0.7587825507314319"/><circle cx="191.63037800665626" cy="778.4405124249158" r="1.5558711712981084" fill="#fff" opacity="0.32367751098534114"/><circle cx="1111.396644218467" cy="793.8970761472957" r="1.5295380587635061" fill="#fff" opacity="0.8686443576933454"/><circle cx="1144.8187757091596" cy="623.1251622251818" r="1.6754340806573238" fill="#fff" opacity="0.7448207920137235"/><circle cx="670.1052686160082" cy="352.09773184159445" r="0.738774686787851" fill="#fff" opacity="0.30541155688102645"/><circle cx="53.26383556156156" cy="561.2156485926259" r="2.600923787693527" fill="#fff" opacity="0.21641906572842373"/><circle cx="394.3212783811031" cy="626.1480901391806" r="2.689493622232469" fill="#fff" opacity="0.4641179550189078"/><circle cx="317.2797153452077" cy="389.30134017811184" r="1.9358096339623194" fill="#fff" opacity="0.25214529008768294"/><circle cx="56.65419981607221" cy="257.8548722825424" r="1.0986512869642286" fill="#fff" opacity="0.465073702898836"/><circle cx="870.8078118145561" cy="223.31778197716474" r="1.213059221996325" fill="#fff" opacity="0.4593277322339285"/><circle cx="523.0295354998317" cy="59.136503754658776" r="2.48667189815416" fill="#fff" opacity="0.42135349487392076"/><circle cx="913.5012344887261" cy="482.5822419007201" r="2.558688563134272" fill="#fff" opacity="0.8356707110192207"/><circle cx="780.5635566596965" cy="376.450546682341" r="1.2946263436187655" fill="#fff" opacity="0.8623354892637636"/><circle cx="804.4511548395506" cy="88.95181570199746" r="2.117460868199943" fill="#fff" opacity="0.34187942321980813"/><circle cx="734.4180221217068" cy="293.3684275181923" r="1.0263131724911334" fill="#fff" opacity="0.4768418493019473"/><circle cx="356.1132646398341" cy="769.2554374327542" r="2.118486969282944" fill="#fff" opacity="0.3181858503305929"/><circle cx="835.4522032567829" cy="301.14764858347326" r="1.919609267297981" fill="#fff" opacity="0.7965502082911105"/><circle cx="438.3076352406678" cy="754.6646185601614" r="2.750483122825636" fill="#fff" opacity="0.7338963262124847"/><circle cx="136.7276170309525" cy="531.8566433183497" r="1.6083474084644018" fill="#fff" opacity="0.6244903909409385"/><circle cx="1006.7294778803216" cy="141.4187894489528" r="1.2573654386590096" fill="#fff" opacity="0.9034595019528802"/><circle cx="296.4393964052353" cy="57.50234583404463" r="1.2364014980855567" fill="#fff" opacity="0.6040634007225347"/><circle cx="727.8727509388452" cy="406.12112134429594" r="0.6308030167552721" fill="#fff" opacity="0.5802506406791208"/><circle cx="377.26995611096703" cy="75.33037133815253" r="2.2880147689332637" fill="#fff" opacity="0.7893392635892273"/><circle cx="1077.2493740454584" cy="797.8316925596241" r="2.9044611824956204" fill="#fff" opacity="0.6530168151700828"/><circle cx="949.6462831327187" cy="562.907021587311" r="2.0265822071722503" fill="#fff" opacity="0.5497435836497205"/><circle cx="809.950500418792" cy="414.9446755309498" r="2.6027743808406267" fill="#fff" opacity="0.3027203989277064"/><circle cx="244.54246963520046" cy="576.378409758742" r="1.5702296739897417" fill="#fff" opacity="0.875783067068246"/><circle cx="62.53036214046599" cy="688.259575310741" r="2.662429108313479" fill="#fff" opacity="0.4891847960111891"/><circle cx="640.7921843272587" cy="147.60799222518344" r="1.7735256993943689" fill="#fff" opacity="0.37003151000835716"/><circle cx="649.6243349760877" cy="0.9874093089843328" r="2.6401817559721215" fill="#fff" opacity="0.26376693809991014"/><circle cx="603.3899277297905" cy="127.14068757193324" r="1.2995459365052338" fill="#fff" opacity="0.43476926770627106"/><circle cx="937.5353084837685" cy="459.68647607426334" r="0.9361884199269417" fill="#fff" opacity="0.5111107693017438"/><circle cx="833.7504381174692" cy="434.6561764435361" r="2.417685566677675" fill="#fff" opacity="0.9676179628507593"/><circle cx="481.21051900044057" cy="692.0866304953327" r="2.5267669720719717" fill="#fff" opacity="0.921208377259136"/><circle cx="210.144570614826" cy="742.6700740037442" r="1.517831761030329" fill="#fff" opacity="0.5717089606164687"/><circle cx="1194.044047840811" cy="502.66095719037145" r="2.7578563463648744" fill="#fff" opacity="0.9932175376363808"/><circle cx="816.5587958824243" cy="186.52290414503943" r="2.5447600691086967" fill="#fff" opacity="0.9285341277430066"/><circle cx="1173.8595140278994" cy="366.5082357907" r="1.168168304618414" fill="#fff" opacity="0.43023428639740563"/><circle cx="745.7866535722874" cy="114.46170288540588" r="1.6674463145887963" fill="#fff" opacity="0.7569782141841312"/><circle cx="490.7783998245515" cy="500.22749699766786" r="1.9624557986129254" fill="#fff" opacity="0.49293035582961875"/><circle cx="789.3628657396605" cy="768.1944847272622" r="1.286940470728727" fill="#fff" opacity="0.9799368250466391"/><circle cx="1020.9264908738672" cy="68.77224085853956" r="2.9439949420700735" fill="#fff" opacity="0.7602815028399768"/><circle cx="214.2709341359593" cy="481.6167849611533" r="1.6308356425636874" fill="#fff" opacity="0.8283625724741979"/><circle cx="1007.848160957288" cy="558.7278186566323" r="2.8013137448865857" fill="#fff" opacity="0.3045052022153469"/><circle cx="493.4972246559293" cy="596.6291393581306" r="1.5779114740443085" fill="#fff" opacity="0.4835207500283776"/><circle cx="105.17723113322015" cy="302.68575403344704" r="1.5309520727509174" fill="#fff" opacity="0.6977580629370888"/><circle cx="972.4919164645157" cy="18.871720959588423" r="2.278463869576516" fill="#fff" opacity="0.44722051584495565"/><circle cx="83.93953940544279" cy="293.22719690604407" r="0.8788204246288457" fill="#fff" opacity="0.6272469474578242"/><circle cx="323.9501838074884" cy="641.9457438630783" r="1.0665766290075909" fill="#fff" opacity="0.37442033317746193"/>
  <!-- Central Spark Core -->
  <circle cx="600" cy="380" r="120" fill="url(#celestialSpark)"/>
  <!-- Floating Starlit Terrace -->
  <ellipse cx="600" cy="620" rx="380" ry="90" fill="#0f172a" stroke="#ec4899" stroke-width="4"/>
  <ellipse cx="600" cy="620" rx="330" ry="75" fill="#1e1b4b" stroke="#38bdf8" stroke-width="2"/>
  <!-- Orbiting celestial rings -->
  <ellipse cx="600" cy="380" rx="280" ry="60" fill="none" stroke="#f43f5e" stroke-width="2" opacity="0.6" transform="rotate(-20, 600, 380)"/>
  <ellipse cx="600" cy="380" rx="320" ry="80" fill="none" stroke="#38bdf8" stroke-width="1.5" opacity="0.5" transform="rotate(15, 600, 380)"/>
  <!-- Two meeting silhouettes reaching hands -->
  <ellipse cx="540" cy="560" rx="12" ry="12" fill="#fff" opacity="0.9"/>
  <ellipse cx="660" cy="560" rx="12" ry="12" fill="#fff" opacity="0.9"/>
  <path d="M 525 615 Q 530 575 540 575 Q 550 575 555 615 Z" fill="#fff" opacity="0.9"/>
  <path d="M 645 615 Q 650 575 660 575 Q 670 575 675 615 Z" fill="#fff" opacity="0.9"/>
  <path d="M 550 585 Q 600 575 650 585" stroke="#fef08a" stroke-width="3" fill="none"/>
  <!-- Title Badge -->
  <rect x="50" y="50" width="340" height="60" rx="30" fill="rgba(15, 23, 42, 0.6)" stroke="rgba(253, 230, 138, 0.4)" stroke-width="1.5"/>
  <text x="220" y="86" fill="#fef08a" font-family="serif" font-size="22" font-weight="300" text-anchor="middle" letter-spacing="3">FIRST MEETING</text>
</svg>